<svg width="1239" height="577" viewBox="0 0 1239 577" fill="none" xmlns="http://www.w3.org/2000/svg">
<path d="M546.385 468H496.885V381.5H370.385V236L482.885 122.5H541.385L416.385 246.5V338.5H496.885V233.5L546.385 184V468Z" fill="#5F00D8"/>
<path d="M585.243 463V353.909H614.078V373.156H615.357C617.629 366.764 621.417 361.722 626.72 358.028C632.023 354.335 638.368 352.489 645.754 352.489C653.235 352.489 659.604 354.359 664.859 358.099C670.115 361.793 673.619 366.812 675.371 373.156H676.507C678.732 366.906 682.757 361.911 688.581 358.17C694.452 354.383 701.389 352.489 709.391 352.489C719.571 352.489 727.833 355.732 734.178 362.219C740.57 368.658 743.766 377.796 743.766 389.634V463H713.581V395.599C713.581 389.539 711.971 384.993 708.751 381.963C705.532 378.933 701.507 377.418 696.678 377.418C691.185 377.418 686.9 379.17 683.822 382.673C680.745 386.13 679.206 390.699 679.206 396.381V463H649.874V394.96C649.874 389.61 648.335 385.348 645.257 382.176C642.227 379.004 638.226 377.418 633.254 377.418C629.893 377.418 626.862 378.27 624.163 379.974C621.512 381.632 619.405 383.975 617.842 387.006C616.28 389.989 615.499 393.492 615.499 397.517V463H585.243ZM817.381 465.131C806.159 465.131 796.5 462.858 788.403 458.312C780.354 453.72 774.152 447.233 769.795 438.852C765.439 430.424 763.261 420.457 763.261 408.952C763.261 397.73 765.439 387.882 769.795 379.406C774.152 370.931 780.283 364.326 788.19 359.591C796.145 354.856 805.473 352.489 816.173 352.489C823.37 352.489 830.07 353.649 836.273 355.969C842.523 358.241 847.968 361.674 852.608 366.267C857.295 370.86 860.941 376.636 863.545 383.597C866.15 390.509 867.452 398.606 867.452 407.886V416.196H775.335V397.446H838.972C838.972 393.09 838.025 389.231 836.131 385.869C834.237 382.508 831.609 379.88 828.247 377.986C824.933 376.045 821.074 375.074 816.67 375.074C812.078 375.074 808.006 376.139 804.455 378.27C800.951 380.353 798.205 383.17 796.216 386.722C794.227 390.225 793.209 394.132 793.162 398.44V416.267C793.162 421.665 794.156 426.329 796.145 430.259C798.181 434.188 801.045 437.219 804.739 439.349C808.432 441.48 812.812 442.545 817.878 442.545C821.24 442.545 824.317 442.072 827.111 441.125C829.904 440.178 832.295 438.758 834.284 436.864C836.273 434.97 837.788 432.65 838.83 429.903L866.813 431.75C865.392 438.473 862.48 444.345 858.077 449.364C853.721 454.335 848.086 458.218 841.173 461.011C834.308 463.758 826.377 465.131 817.381 465.131ZM927.395 464.776C919.109 464.776 911.604 462.645 904.881 458.384C898.205 454.075 892.902 447.754 888.972 439.42C885.089 431.04 883.148 420.765 883.148 408.597C883.148 396.097 885.16 385.704 889.185 377.418C893.209 369.084 898.56 362.858 905.236 358.739C911.959 354.572 919.322 352.489 927.324 352.489C933.432 352.489 938.522 353.53 942.594 355.614C946.713 357.65 950.027 360.206 952.537 363.284C955.094 366.314 957.035 369.297 958.361 372.233H959.284V317.545H989.469V463H959.639V445.528H958.361C956.94 448.559 954.928 451.565 952.324 454.548C949.767 457.484 946.429 459.922 942.31 461.864C938.238 463.805 933.266 464.776 927.395 464.776ZM936.983 440.699C941.86 440.699 945.979 439.373 949.341 436.722C952.75 434.023 955.354 430.259 957.153 425.429C959 420.599 959.923 414.941 959.923 408.455C959.923 401.968 959.024 396.333 957.224 391.551C955.425 386.769 952.821 383.076 949.412 380.472C946.003 377.867 941.86 376.565 936.983 376.565C932.011 376.565 927.821 377.915 924.412 380.614C921.003 383.312 918.422 387.053 916.67 391.835C914.919 396.617 914.043 402.157 914.043 408.455C914.043 414.799 914.919 420.41 916.67 425.287C918.47 430.116 921.05 433.904 924.412 436.651C927.821 439.349 932.011 440.699 936.983 440.699ZM1014.34 463V353.909H1044.6V463H1014.34ZM1029.54 339.847C1025.05 339.847 1021.19 338.355 1017.97 335.372C1014.79 332.342 1013.21 328.72 1013.21 324.506C1013.21 320.339 1014.79 316.764 1017.97 313.781C1021.19 310.751 1025.05 309.236 1029.54 309.236C1034.04 309.236 1037.88 310.751 1041.05 313.781C1044.27 316.764 1045.88 320.339 1045.88 324.506C1045.88 328.72 1044.27 332.342 1041.05 335.372C1037.88 338.355 1034.04 339.847 1029.54 339.847ZM1099.94 465.06C1092.98 465.06 1086.78 463.852 1081.34 461.438C1075.89 458.975 1071.58 455.353 1068.41 450.571C1065.29 445.741 1063.72 439.728 1063.72 432.531C1063.72 426.471 1064.84 421.381 1067.06 417.261C1069.29 413.142 1072.32 409.828 1076.15 407.318C1079.99 404.809 1084.34 402.915 1089.22 401.636C1094.14 400.358 1099.31 399.458 1104.7 398.938C1111.05 398.275 1116.16 397.659 1120.04 397.091C1123.93 396.475 1126.74 395.576 1128.5 394.392C1130.25 393.208 1131.12 391.456 1131.12 389.136V388.71C1131.12 384.212 1129.7 380.732 1126.86 378.27C1124.07 375.808 1120.09 374.577 1114.93 374.577C1109.49 374.577 1105.15 375.784 1101.93 378.199C1098.71 380.566 1096.58 383.549 1095.54 387.148L1067.56 384.875C1068.98 378.246 1071.77 372.517 1075.94 367.688C1080.11 362.811 1085.48 359.07 1092.06 356.466C1098.69 353.814 1106.36 352.489 1115.07 352.489C1121.13 352.489 1126.93 353.199 1132.47 354.619C1138.06 356.04 1143.01 358.241 1147.32 361.224C1151.67 364.207 1155.11 368.043 1157.62 372.73C1160.12 377.37 1161.38 382.934 1161.38 389.42V463H1132.69V447.872H1131.83C1130.08 451.281 1127.74 454.288 1124.8 456.892C1121.87 459.449 1118.34 461.461 1114.22 462.929C1110.1 464.349 1105.34 465.06 1099.94 465.06ZM1108.61 444.179C1113.06 444.179 1116.99 443.303 1120.4 441.551C1123.81 439.752 1126.48 437.337 1128.42 434.307C1130.37 431.277 1131.34 427.844 1131.34 424.009V412.432C1130.39 413.047 1129.09 413.616 1127.43 414.136C1125.82 414.61 1124 415.06 1121.96 415.486C1119.93 415.865 1117.89 416.22 1115.85 416.551C1113.82 416.835 1111.97 417.096 1110.31 417.332C1106.76 417.853 1103.66 418.682 1101.01 419.818C1098.36 420.955 1096.3 422.493 1094.83 424.435C1093.36 426.329 1092.63 428.696 1092.63 431.537C1092.63 435.656 1094.12 438.805 1097.1 440.983C1100.13 443.114 1103.97 444.179 1108.61 444.179Z" fill="white"/>
<path d="M152.514 384.889L124.815 386.594C124.342 384.226 123.324 382.096 121.761 380.202C120.199 378.26 118.139 376.721 115.582 375.585C113.073 374.401 110.066 373.81 106.562 373.81C101.875 373.81 97.9212 374.804 94.7016 376.793C91.4819 378.734 89.872 381.338 89.872 384.605C89.872 387.209 90.9137 389.411 92.997 391.21C95.0803 393.009 98.6552 394.454 103.721 395.543L123.466 399.52C134.072 401.698 141.979 405.202 147.187 410.031C152.396 414.861 155 421.205 155 429.065C155 436.215 152.893 442.489 148.679 447.886C144.512 453.284 138.783 457.498 131.491 460.528C124.247 463.511 115.89 465.003 106.42 465.003C91.979 465.003 80.4733 461.996 71.9033 455.983C63.3805 449.922 58.3853 441.684 56.9175 431.267L86.676 429.704C87.5756 434.108 89.7536 437.47 93.2101 439.79C96.6665 442.062 101.094 443.199 106.491 443.199C111.794 443.199 116.056 442.181 119.275 440.145C122.542 438.061 124.2 435.386 124.247 432.119C124.2 429.373 123.04 427.124 120.767 425.372C118.494 423.573 114.99 422.2 110.256 421.253L91.3635 417.489C80.7101 415.358 72.7792 411.665 67.5709 406.409C62.4099 401.153 59.8294 394.454 59.8294 386.31C59.8294 379.302 61.7233 373.265 65.5112 368.199C69.3464 363.132 74.7205 359.226 81.6334 356.48C88.5936 353.734 96.7375 352.361 106.065 352.361C119.844 352.361 130.686 355.273 138.594 361.096C146.548 366.92 151.188 374.851 152.514 384.889ZM232.077 353.781V376.508H166.381V353.781H232.077ZM181.296 327.645H211.552V429.349C211.552 432.143 211.978 434.321 212.83 435.883C213.682 437.399 214.866 438.464 216.381 439.079C217.944 439.695 219.743 440.003 221.779 440.003C223.199 440.003 224.62 439.884 226.04 439.648C227.461 439.364 228.55 439.15 229.307 439.008L234.066 461.523C232.551 461.996 230.42 462.541 227.674 463.156C224.928 463.819 221.59 464.222 217.66 464.364C210.368 464.648 203.976 463.677 198.484 461.452C193.038 459.226 188.801 455.77 185.77 451.082C182.74 446.395 181.249 440.476 181.296 433.327V327.645ZM251.786 462.872V353.781H281.118V372.815H282.255C284.243 366.044 287.582 360.931 292.269 357.474C296.957 353.971 302.354 352.219 308.462 352.219C309.977 352.219 311.611 352.313 313.363 352.503C315.115 352.692 316.653 352.953 317.979 353.284V380.131C316.559 379.704 314.594 379.326 312.084 378.994C309.575 378.663 307.278 378.497 305.195 378.497C300.744 378.497 296.767 379.468 293.263 381.409C289.807 383.303 287.061 385.954 285.025 389.364C283.036 392.773 282.042 396.703 282.042 401.153V462.872H251.786ZM377.834 465.003C366.801 465.003 357.261 462.659 349.212 457.972C341.21 453.237 335.031 446.655 330.675 438.227C326.319 429.752 324.14 419.927 324.14 408.753C324.14 397.484 326.319 387.635 330.675 379.207C335.031 370.732 341.21 364.15 349.212 359.463C357.261 354.728 366.801 352.361 377.834 352.361C388.866 352.361 398.383 354.728 406.385 359.463C414.434 364.15 420.637 370.732 424.993 379.207C429.349 387.635 431.527 397.484 431.527 408.753C431.527 419.927 429.349 429.752 424.993 438.227C420.637 446.655 414.434 453.237 406.385 457.972C398.383 462.659 388.866 465.003 377.834 465.003ZM377.976 441.565C382.995 441.565 387.185 440.145 390.547 437.304C393.908 434.416 396.442 430.486 398.146 425.514C399.898 420.543 400.774 414.884 400.774 408.54C400.774 402.195 399.898 396.537 398.146 391.565C396.442 386.594 393.908 382.664 390.547 379.775C387.185 376.887 382.995 375.443 377.976 375.443C372.909 375.443 368.648 376.887 365.192 379.775C361.783 382.664 359.202 386.594 357.45 391.565C355.746 396.537 354.893 402.195 354.893 408.54C354.893 414.884 355.746 420.543 357.45 425.514C359.202 430.486 361.783 434.416 365.192 437.304C368.648 440.145 372.909 441.565 377.976 441.565Z" fill="white"/>
</svg>
